<svg xmlns="http://www.w3.org/2000/svg" viewBox="0 0 24 24" fill="#25D366">
  <path d="M20.52 3.48A11.78 11.78 0 0 0 12 0 11.76 11.76 0 0 0 .23 11.77a11.61 11.61 0 0 0 1.62 6L0 24l6.43-1.69A11.8 11.8 0 0 0 12 23.53a11.77 11.77 0 0 0 8.52-20.05ZM12 21.4a9.53 9.53 0 0 1-5.08-1.48l-.36-.22-3.82 1 1-3.72-.24-.38A9.46 9.46 0 1 1 12 21.4Zm5.33-7.11c-.29-.15-1.71-.84-1.98-.94s-.46-.15-.66.15-.76.94-.93 1.13-.34.22-.63.07a7.83 7.83 0 0 1-2.29-1.42 8.67 8.67 0 0 1-1.6-2c-.17-.29 0-.45.13-.6s.29-.34.43-.51.19-.29.29-.48.05-.37 0-.52-.67-1.6-.92-2.2-.49-.51-.67-.52H7.3a1.34 1.34 0 0 0-1 .45 4.25 4.25 0 0 0-1.34 3.14 7.4 7.4 0 0 0 1.56 3.89 16.89 16.89 0 0 0 6.55 5.73A7.9 7.9 0 0 0 15 19.7a3.74 3.74 0 0 0 2.4-.94 3.1 3.1 0 0 0 1-2.36c-.06-.15-.24-.23-.45-.31Z"/>
</svg>